<svg width="24" height="24" viewBox="0 0 24 24" fill="currentColor" xmlns="http://www.w3.org/2000/svg">
<path d="M20 4H19V3C19 2.4 18.6 2 18 2C17.4 2 17 2.4 17 3V4H6.99999V3C6.99999 2.4 6.59999 2 5.99999 2C5.39999 2 5 2.4 5 3V4H3C2.5 4 2 4.4 2 5V19C2 19.6 2.5 20 3 20H9.09999C8.39999 18.8 7.99999 17.4 7.99999 16C7.99999 11.6 11.6 7.99999 16 7.99999C17.9 7.99999 19.6 8.69999 21 9.79999V5C21 4.5 20.5 4 20 4Z" fill="#687896"/>
<path d="M16 10.0001C12.7 10.0001 10 12.7001 10 16.0001C10 19.3 12.7 22 16 22C19.3 22 22 19.3 22 16.0001C22 12.7001 19.3 10.0001 16 10.0001ZM18 17H16C15.4 17 15 16.6 15 16.0001V13.0001C15 12.4001 15.4 12.0001 16 12.0001C16.6 12.0001 17 12.4001 17 13.0001V15.0001H18C18.6 15.0001 19 15.4001 19 16.0001C19 16.6 18.6 17 18 17Z" fill="#687896"/>
</svg>
