<svg width="24" height="24" viewBox="0 0 24 24" fill="currentColor" xmlns="http://www.w3.org/2000/svg">
<path d="M9.60333 17.8003H14.3968V24H9.60333V17.8003Z" fill="white"/>
<path d="M7.74567 4.5145H9.7851V6.55394H7.74567V4.5145Z" fill="white"/>
<path d="M14.215 4.5145H16.2545V6.55394H14.215V4.5145Z" fill="white"/>
<path d="M7.74567 11.0604H9.7851V13.0998H7.74567V11.0604Z" fill="white"/>
<path d="M14.215 11.0604H16.2545V13.0998H14.215V11.0604Z" fill="white"/>
<path d="M22.6071 22.5938H20.7521V0.703125C20.7521 0.314812 20.4373 0 20.049 0H3.95107C3.56276 0 3.24794 0.314812 3.24794 0.703125V22.5938H1.39301C1.00469 22.5938 0.68988 22.9086 0.68988 23.2969C0.68988 23.6852 1.00469 24 1.39301 24H8.1971V17.0971C8.1971 16.7088 8.51191 16.394 8.90022 16.394H15.0999C15.4882 16.394 15.803 16.7088 15.803 17.0971V24H22.6071C22.9954 24 23.3103 23.6852 23.3103 23.2969C23.3103 22.9086 22.9955 22.5938 22.6071 22.5938ZM17.6607 3.81136V7.25705C17.6607 7.64536 17.3459 7.96017 16.9576 7.96017H13.5119C13.1236 7.96017 12.8088 7.64536 12.8088 7.25705V3.81136C12.8088 3.42305 13.1236 3.10823 13.5119 3.10823H16.9576C17.3459 3.10823 17.6607 3.42305 17.6607 3.81136ZM11.1914 13.8029C11.1914 14.1912 10.8766 14.506 10.4883 14.506H7.04257C6.65426 14.506 6.33944 14.1912 6.33944 13.8029V10.3572C6.33944 9.96891 6.65426 9.65409 7.04257 9.65409H10.4883C10.8766 9.65409 11.1914 9.96891 11.1914 10.3572V13.8029ZM11.1914 7.25705C11.1914 7.64536 10.8766 7.96017 10.4883 7.96017H7.04257C6.65426 7.96017 6.33944 7.64536 6.33944 7.25705V3.81136C6.33944 3.42305 6.65426 3.10823 7.04257 3.10823H10.4883C10.8766 3.10823 11.1914 3.42305 11.1914 3.81136V7.25705ZM13.5119 14.506C13.1236 14.506 12.8088 14.1912 12.8088 13.8029V10.3572C12.8088 9.96891 13.1236 9.65409 13.5119 9.65409H16.9576C17.3459 9.65409 17.6607 9.96891 17.6607 10.3572V13.8029C17.6607 14.1912 17.3459 14.506 16.9576 14.506H13.5119Z" fill="white"/>
</svg>
