<svg width="24" height="24" viewBox="0 0 24 24" fill="currentColor" xmlns="http://www.w3.org/2000/svg">
<path d="M12 2C6.47773 2 2 6.47685 2 11.9996C2 17.5223 6.47729 21.9991 12 21.9991C17.5231 21.9991 22 17.5223 22 11.9996C22 6.47685 17.5231 2 12 2ZM12 4.98998C13.8273 4.98998 15.308 6.47114 15.308 8.29755C15.308 10.1244 13.8273 11.6051 12 11.6051C10.1736 11.6051 8.69288 10.1244 8.69288 8.29755C8.69288 6.47114 10.1736 4.98998 12 4.98998ZM11.9978 19.3847C10.1753 19.3847 8.50619 18.721 7.21875 17.6224C6.90512 17.3549 6.72415 16.9627 6.72415 16.5511C6.72415 14.6988 8.22332 13.2163 10.0761 13.2163H13.9248C15.778 13.2163 17.2715 14.6988 17.2715 16.5511C17.2715 16.9631 17.0914 17.3545 16.7773 17.622C15.4903 18.721 13.8207 19.3847 11.9978 19.3847Z" fill="#687896"/>
</svg>
